<svg width="24" height="9" viewBox="0 0 24 9" fill="none" xmlns="http://www.w3.org/2000/svg">
<path d="M8.01989 4.48295C8.01989 5.42329 7.84375 6.22869 7.49148 6.89914C7.14205 7.56676 6.66477 8.07812 6.05966 8.43324C5.45739 8.78835 4.77415 8.96591 4.00994 8.96591C3.24574 8.96591 2.56108 8.78835 1.95597 8.43324C1.35369 8.07528 0.876421 7.5625 0.524148 6.89488C0.174716 6.22443 5.36442e-07 5.42045 5.36442e-07 4.48295C5.36442e-07 3.54261 0.174716 2.73863 0.524148 2.07102C0.876421 1.40057 1.35369 0.887781 1.95597 0.532667C2.56108 0.177554 3.24574 -3.09944e-06 4.00994 -3.09944e-06C4.77415 -3.09944e-06 5.45739 0.177554 6.05966 0.532667C6.66477 0.887781 7.14205 1.40057 7.49148 2.07102C7.84375 2.73863 8.01989 3.54261 8.01989 4.48295ZM6.4304 4.48295C6.4304 3.82102 6.32671 3.26278 6.11932 2.80824C5.91477 2.35085 5.63068 2.00568 5.26705 1.77272C4.90341 1.53693 4.48438 1.41903 4.00994 1.41903C3.53551 1.41903 3.11648 1.53693 2.75284 1.77272C2.38921 2.00568 2.10369 2.35085 1.89631 2.80824C1.69176 3.26278 1.58949 3.82102 1.58949 4.48295C1.58949 5.14488 1.69176 5.70454 1.89631 6.16193C2.10369 6.61647 2.38921 6.96164 2.75284 7.19744C3.11648 7.43039 3.53551 7.54687 4.00994 7.54687C4.48438 7.54687 4.90341 7.43039 5.26705 7.19744C5.63068 6.96164 5.91477 6.61647 6.11932 6.16193C6.32671 5.70454 6.4304 5.14488 6.4304 4.48295ZM9.51456 8.84659V0.119315H12.7873C13.4577 0.119315 14.0202 0.244315 14.4748 0.494315C14.9322 0.744315 15.2773 1.08807 15.5103 1.52557C15.7461 1.96022 15.864 2.45454 15.864 3.00852C15.864 3.56818 15.7461 4.06534 15.5103 4.5C15.2745 4.93466 14.9265 5.27699 14.4663 5.52699C14.006 5.77414 13.4393 5.89772 12.766 5.89772H10.5969V4.59801H12.5529C12.945 4.59801 13.266 4.52983 13.516 4.39346C13.766 4.2571 13.9506 4.0696 14.07 3.83096C14.1921 3.59233 14.2532 3.31818 14.2532 3.00852C14.2532 2.69886 14.1921 2.42613 14.07 2.19034C13.9506 1.95454 13.7646 1.7713 13.5117 1.64062C13.2617 1.5071 12.9393 1.44034 12.5444 1.44034H11.0955V8.84659H9.51456ZM16.8537 1.4446V0.119315H23.8168V1.4446H21.1193V8.84659H19.5511V1.4446H16.8537Z" fill="#CE5196"/>
</svg>
