<svg width="24" height="9" viewBox="0 0 24 9" fill="none" xmlns="http://www.w3.org/2000/svg">
<path d="M1.37091e-06 8.84659V0.119318H3.27273C3.94318 0.119318 4.50568 0.244318 4.96023 0.494318C5.41762 0.744318 5.76279 1.08807 5.99574 1.52557C6.23154 1.96023 6.34943 2.45455 6.34943 3.00852C6.34943 3.56818 6.23154 4.06534 5.99574 4.5C5.75994 4.93466 5.41193 5.27699 4.95171 5.52699C4.49148 5.77415 3.92472 5.89773 3.25142 5.89773H1.08239V4.59801H3.03835C3.4304 4.59801 3.75142 4.52983 4.00142 4.39347C4.25142 4.2571 4.43608 4.0696 4.5554 3.83097C4.67756 3.59233 4.73864 3.31818 4.73864 3.00852C4.73864 2.69886 4.67756 2.42614 4.5554 2.19034C4.43608 1.95455 4.25 1.77131 3.99716 1.64062C3.74716 1.5071 3.42472 1.44034 3.02983 1.44034H1.58097V8.84659H1.37091e-06ZM15.521 4.48295C15.521 5.4233 15.3448 6.22869 14.9925 6.89915C14.6431 7.56676 14.1658 8.07813 13.5607 8.43324C12.9585 8.78835 12.2752 8.96591 11.511 8.96591C10.7468 8.96591 10.0621 8.78835 9.45703 8.43324C8.85476 8.07528 8.37749 7.5625 8.02521 6.89489C7.67578 6.22443 7.50107 5.42045 7.50107 4.48295C7.50107 3.54261 7.67578 2.73864 8.02521 2.07102C8.37749 1.40057 8.85476 0.887784 9.45703 0.53267C10.0621 0.177557 10.7468 -2.38419e-07 11.511 -2.38419e-07C12.2752 -2.38419e-07 12.9585 0.177557 13.5607 0.53267C14.1658 0.887784 14.6431 1.40057 14.9925 2.07102C15.3448 2.73864 15.521 3.54261 15.521 4.48295ZM13.9315 4.48295C13.9315 3.82102 13.8278 3.26278 13.6204 2.80824C13.4158 2.35085 13.1317 2.00568 12.7681 1.77273C12.4045 1.53693 11.9854 1.41903 11.511 1.41903C11.0366 1.41903 10.6175 1.53693 10.2539 1.77273C9.89027 2.00568 9.60476 2.35085 9.39737 2.80824C9.19283 3.26278 9.09056 3.82102 9.09056 4.48295C9.09056 5.14489 9.19283 5.70455 9.39737 6.16193C9.60476 6.61648 9.89027 6.96165 10.2539 7.19744C10.6175 7.4304 11.0366 7.54688 11.511 7.54688C11.9854 7.54688 12.4045 7.4304 12.7681 7.19744C13.1317 6.96165 13.4158 6.61648 13.6204 6.16193C13.8278 5.70455 13.9315 5.14489 13.9315 4.48295ZM21.7585 2.51847C21.7188 2.14631 21.5511 1.85653 21.2557 1.64915C20.9631 1.44176 20.5824 1.33807 20.1136 1.33807C19.7841 1.33807 19.5014 1.38778 19.2656 1.48722C19.0298 1.58665 18.8494 1.72159 18.7244 1.89205C18.5994 2.0625 18.5355 2.2571 18.5327 2.47585C18.5327 2.65767 18.5739 2.81534 18.6563 2.94886C18.7415 3.08239 18.8565 3.19602 19.0014 3.28977C19.1463 3.38068 19.3068 3.45739 19.483 3.51989C19.6591 3.58239 19.8366 3.63494 20.0156 3.67756L20.8338 3.8821C21.1634 3.95881 21.4801 4.0625 21.7841 4.19318C22.0909 4.32386 22.3651 4.48864 22.6065 4.6875C22.8509 4.88636 23.044 5.12642 23.1861 5.40767C23.3281 5.68892 23.3991 6.01847 23.3991 6.39631C23.3991 6.90767 23.2685 7.35795 23.0071 7.74716C22.7457 8.13352 22.3679 8.43608 21.8736 8.65483C21.3821 8.87074 20.7869 8.97869 20.0881 8.97869C19.4091 8.97869 18.8196 8.87358 18.3196 8.66335C17.8224 8.45313 17.4332 8.14631 17.152 7.7429C16.8736 7.33949 16.723 6.84801 16.7003 6.26847H18.2557C18.2784 6.57244 18.3722 6.82528 18.5369 7.02699C18.7017 7.22869 18.9162 7.37926 19.1804 7.47869C19.4474 7.57813 19.7457 7.62784 20.0753 7.62784C20.419 7.62784 20.7202 7.5767 20.9787 7.47443C21.2401 7.36932 21.4446 7.22443 21.5923 7.03977C21.7401 6.85227 21.8153 6.63352 21.8182 6.38352C21.8153 6.15625 21.7486 5.96875 21.6179 5.82102C21.4872 5.67045 21.304 5.54545 21.0682 5.44602C20.8352 5.34375 20.5625 5.25284 20.25 5.1733L19.2571 4.91761C18.5384 4.73295 17.9702 4.45313 17.5526 4.07813C17.1378 3.70028 16.9304 3.19886 16.9304 2.57386C16.9304 2.05966 17.0696 1.60937 17.348 1.22301C17.6293 0.836648 18.0114 0.536932 18.4943 0.323863C18.9773 0.107954 19.5241 -2.38419e-07 20.1349 -2.38419e-07C20.7543 -2.38419e-07 21.2969 0.107954 21.7628 0.323863C22.2315 0.536932 22.5994 0.833807 22.8665 1.21449C23.1335 1.59233 23.2713 2.02699 23.2798 2.51847H21.7585Z" fill="#D9BF61"/>
</svg>
