<svg width="24" height="9" viewBox="0 0 24 9" fill="none" xmlns="http://www.w3.org/2000/svg">
<path d="M2.95739 8.72727H1.37091e-06V-9.53674e-07H3.01705C3.88352 -9.53674e-07 4.62784 0.174715 5.25 0.524147C5.875 0.870738 6.35512 1.36932 6.69034 2.01989C7.02557 2.67045 7.19318 3.44886 7.19318 4.35511C7.19318 5.2642 7.02415 6.04545 6.68608 6.69886C6.35085 7.35227 5.86648 7.85369 5.23296 8.20312C4.60227 8.55256 3.84375 8.72727 2.95739 8.72727ZM1.58097 7.35937H2.88068C3.48864 7.35937 3.99574 7.24858 4.40199 7.02699C4.80824 6.80256 5.11364 6.46875 5.31818 6.02557C5.52273 5.57954 5.625 5.02273 5.625 4.35511C5.625 3.6875 5.52273 3.13352 5.31818 2.69318C5.11364 2.25 4.81108 1.91903 4.41051 1.70028C4.01279 1.47869 3.51847 1.3679 2.92756 1.3679H1.58097V7.35937ZM8.69531 8.72727V-9.53674e-07H14.3715V1.32528H10.2763V3.6946H14.0774V5.01989H10.2763V7.40199H14.4055V8.72727H8.69531ZM15.9844 8.72727V-9.53674e-07H17.5653V7.40199H21.4091V8.72727H15.9844Z" fill="#CB766B"/>
</svg>
