<svg width="24" height="9" viewBox="0 0 24 9" fill="none" xmlns="http://www.w3.org/2000/svg">
<path d="M6.06818 2.90625C5.99716 2.67614 5.89915 2.47017 5.77415 2.28835C5.65199 2.10369 5.50426 1.94602 5.33096 1.81534C5.16051 1.68466 4.96449 1.58665 4.7429 1.52131C4.52131 1.45312 4.27983 1.41903 4.01846 1.41903C3.54971 1.41903 3.1321 1.53693 2.76562 1.77273C2.39915 2.00852 2.11079 2.35511 1.90057 2.8125C1.69318 3.26705 1.58949 3.82102 1.58949 4.47443C1.58949 5.13352 1.69318 5.69176 1.90057 6.14915C2.10795 6.60653 2.39631 6.95455 2.76562 7.19318C3.13494 7.42898 3.56392 7.54688 4.05256 7.54688C4.49574 7.54688 4.87926 7.46165 5.20312 7.29119C5.52983 7.12074 5.78125 6.87926 5.95739 6.56676C6.13352 6.25142 6.22159 5.8821 6.22159 5.45881L6.57954 5.5142H4.21023V4.27841H7.75142V5.3267C7.75142 6.07386 7.59233 6.72017 7.27415 7.26563C6.95596 7.81108 6.51846 8.23153 5.96165 8.52699C5.40483 8.8196 4.76562 8.96591 4.04403 8.96591C3.24006 8.96591 2.53409 8.78551 1.92614 8.42472C1.32102 8.06108 0.84801 7.54545 0.507101 6.87784C0.169033 6.20739 -1.37091e-06 5.41193 -1.37091e-06 4.49148C-1.37091e-06 3.78693 0.0994304 3.15767 0.298294 2.60369C0.499999 2.04972 0.781249 1.57955 1.14204 1.19318C1.50284 0.803977 1.92614 0.508523 2.41193 0.306818C2.89773 0.102273 3.42614 -2.38419e-07 3.99716 -2.38419e-07C4.48011 -2.38419e-07 4.9304 0.0710225 5.34801 0.213068C5.76562 0.352273 6.13636 0.551136 6.46023 0.809659C6.78693 1.06818 7.0554 1.375 7.26562 1.73011C7.47585 2.08523 7.61364 2.47727 7.67898 2.90625H6.06818ZM9.28018 8.84659V0.119318H14.9563V1.4446H10.8611V3.81392H14.6623V5.1392H10.8611V7.52131H14.9904V8.84659H9.28018ZM16.1857 1.4446V0.119318H23.1488V1.4446H20.4513V8.84659H18.8832V1.4446H16.1857Z" fill="#5BB981"/>
</svg>
