<svg width="24" height="9" viewBox="0 0 24 9" fill="none" xmlns="http://www.w3.org/2000/svg">
<path d="M1.37091e-06 8.72727V-9.53674e-07H3.27273C3.94318 -9.53674e-07 4.50568 0.124999 4.96023 0.374999C5.41762 0.624999 5.76279 0.968749 5.99574 1.40625C6.23154 1.84091 6.34943 2.33523 6.34943 2.8892C6.34943 3.44886 6.23154 3.94602 5.99574 4.38068C5.75994 4.81534 5.41193 5.15767 4.95171 5.40767C4.49148 5.65483 3.92472 5.77841 3.25142 5.77841H1.08239V4.47869H3.03835C3.4304 4.47869 3.75142 4.41051 4.00142 4.27415C4.25142 4.13778 4.43608 3.95028 4.5554 3.71165C4.67756 3.47301 4.73864 3.19886 4.73864 2.8892C4.73864 2.57954 4.67756 2.30682 4.5554 2.07102C4.43608 1.83523 4.25 1.65199 3.99716 1.52131C3.74716 1.38778 3.42472 1.32102 3.02983 1.32102H1.58097V8.72727H1.37091e-06ZM7.87074 8.72727H6.18324L9.25568 -9.53674e-07H11.2074L14.2841 8.72727H12.5966L10.2656 1.78977H10.1974L7.87074 8.72727ZM7.92614 5.3054H12.5284V6.57528H7.92614V5.3054ZM13.9954 1.32528V-9.53674e-07H20.9585V1.32528H18.261V8.72727H16.6928V1.32528H13.9954Z" fill="#9C84BC"/>
</svg>
