<svg width="24" height="9" viewBox="0 0 24 9" fill="none" xmlns="http://www.w3.org/2000/svg">
<path d="M1.37091e-06 8.72727V-9.53674e-07H3.27273C3.94318 -9.53674e-07 4.50568 0.124999 4.96023 0.374999C5.41762 0.624999 5.76279 0.968749 5.99574 1.40625C6.23154 1.84091 6.34943 2.33523 6.34943 2.8892C6.34943 3.44886 6.23154 3.94602 5.99574 4.38068C5.75994 4.81534 5.41193 5.15767 4.95171 5.40767C4.49148 5.65483 3.92472 5.77841 3.25142 5.77841H1.08239V4.47869H3.03835C3.4304 4.47869 3.75142 4.41051 4.00142 4.27415C4.25142 4.13778 4.43608 3.95028 4.5554 3.71165C4.67756 3.47301 4.73864 3.19886 4.73864 2.8892C4.73864 2.57954 4.67756 2.30682 4.5554 2.07102C4.43608 1.83523 4.25 1.65199 3.99716 1.52131C3.74716 1.38778 3.42472 1.32102 3.02983 1.32102H1.58097V8.72727H1.37091e-06ZM13.2241 -9.53674e-07H14.805V5.7017C14.805 6.3267 14.6573 6.87642 14.3619 7.35085C14.0692 7.82528 13.6573 8.19602 13.1261 8.46307C12.5948 8.72727 11.9741 8.85937 11.2639 8.85937C10.5508 8.85937 9.92862 8.72727 9.39737 8.46307C8.86612 8.19602 8.45419 7.82528 8.16158 7.35085C7.86896 6.87642 7.72266 6.3267 7.72266 5.7017V-9.53674e-07H9.30362V5.5696C9.30362 5.93324 9.38317 6.2571 9.54226 6.54119C9.70419 6.82528 9.93146 7.04829 10.2241 7.21023C10.5167 7.36932 10.8633 7.44886 11.2639 7.44886C11.6644 7.44886 12.011 7.36932 12.3036 7.21023C12.5991 7.04829 12.8264 6.82528 12.9854 6.54119C13.1445 6.2571 13.2241 5.93324 13.2241 5.5696V-9.53674e-07ZM16.1399 1.32528V-9.53674e-07H23.103V1.32528H20.4055V8.72727H18.8374V1.32528H16.1399Z" fill="#5991C3"/>
</svg>
